<?xml version="1.0" encoding="UTF-8" standalone="no"?>
<!-- Created with Inkscape (http://www.inkscape.org/) -->

<svg
   width="210mm"
   height="297mm"
   viewBox="0 0 210 297"
   version="1.1"
   id="svg1"
   inkscape:version="1.4.3 (0d15f75, 2025-12-25)"
   sodipodi:docname="LOGO_NAPIS_ONLY.svg"
   xmlns:inkscape="http://www.inkscape.org/namespaces/inkscape"
   xmlns:sodipodi="http://sodipodi.sourceforge.net/DTD/sodipodi-0.dtd"
   xmlns="http://www.w3.org/2000/svg"
   xmlns:svg="http://www.w3.org/2000/svg">
  <sodipodi:namedview
     id="namedview1"
     pagecolor="#505050"
     bordercolor="#ffffff"
     borderopacity="1"
     inkscape:showpageshadow="0"
     inkscape:pageopacity="0"
     inkscape:pagecheckerboard="1"
     inkscape:deskcolor="#505050"
     inkscape:document-units="mm"
     inkscape:zoom="0.26168806"
     inkscape:cx="248.38733"
     inkscape:cy="192.97785"
     inkscape:window-width="933"
     inkscape:window-height="1211"
     inkscape:window-x="1678"
     inkscape:window-y="86"
     inkscape:window-maximized="0"
     inkscape:current-layer="layer1" />
  <defs
     id="defs1">
    <rect
       x="25.563688"
       y="635.60626"
       width="1388.5731"
       height="405.53305"
       id="rect10" />
  </defs>
  <g
     inkscape:label="Layer 1"
     inkscape:groupmode="layer"
     id="layer1">
    <text
       xml:space="preserve"
       transform="matrix(0.14982755,0,0,0.14982755,-1.7916437,165.39974)"
       id="text10"
       style="font-style:normal;font-variant:normal;font-weight:600;font-stretch:normal;font-size:200px;font-family:Orbitron;-inkscape-font-specification:'Orbitron Semi-Bold';writing-mode:lr-tb;direction:ltr;white-space:pre;shape-inside:url(#rect10);fill:#10003a;fill-opacity:1"><tspan
         x="25.564453"
         y="821.84949"
         id="tspan4"><tspan
           style="font-weight:bold;-inkscape-font-specification:'Orbitron Bold'"
           id="tspan3">SIMULAT   D</tspan></tspan></text>
    <path
       style="fill:#00cfad;fill-opacity:0.302128;stroke-width:0.174098"
       d="m 164.10647,291.43256 c -0.8171,-0.23713 -2.02906,-1.40471 -2.54169,-2.44863 -0.32705,-0.66597 -0.49057,-1.34308 -0.57209,-2.36882 l -0.11416,-1.43631 h 2.53638 2.53639 v 0.78344 0.78344 h 6.87684 6.87684 v -2.35031 -2.35032 h -7.39914 -7.39914 v -2.52441 -2.52442 h 6.9639 6.9639 v -2.17621 -2.17622 h -6.44161 -6.44159 v 0.95753 0.95754 h -2.52442 -2.52441 l 0.006,-0.56582 c 0.0116,-1.23118 0.34998,-3.11777 0.67059,-3.73987 0.41371,-0.80278 1.23881,-1.59244 2.29899,-2.20028 l 0.79873,-0.45793 h 7.69546 c 7.35974,0 7.72531,0.0153 8.38006,0.34926 0.97553,0.49768 1.85406,1.31622 2.38491,2.22204 0.40855,0.69715 0.47323,1.04136 0.59249,3.1534 0.0736,1.30395 0.13845,3.13179 0.14405,4.06184 0.008,1.26186 0.0986,1.91519 0.35842,2.57438 0.30771,0.78068 0.34808,1.29248 0.34722,4.4024 0,2.00211 -0.0828,3.81363 -0.19071,4.20245 -0.25714,0.92614 -1.94187,2.61086 -2.868,2.86801 -0.83993,0.23319 -16.61126,0.23666 -17.41357,0.004 z"
       id="path21" />
    <path
       style="fill:#229aa5;fill-opacity:1;stroke-width:0.179149"
       d="m 162.86899,290.67297 c -0.97029,-0.35106 -1.8869,-1.10699 -2.48447,-2.04888 -0.67429,-1.06287 -0.8726,-1.8109 -0.87381,-3.29633 l -0.002,-1.20904 h 2.59813 2.59815 v 0.80603 0.80601 h 7.0777 7.07769 v -2.41805 -2.41807 h -7.61522 -7.61524 v -2.59717 -2.59717 h 7.1673 7.16729 v -2.23895 -2.23893 h -6.62982 -6.62974 v 0.98513 0.98513 h -2.59815 -2.59813 v -1.40041 c 0,-2.5567 0.82739,-4.12923 2.75376,-5.23368 l 0.91947,-0.52716 8.11396,-0.002 8.11396,-0.002 0.86726,0.43931 c 1.14889,0.58197 2.2784,1.88717 2.6157,3.02256 0.19908,0.67011 0.26795,1.82934 0.26795,4.51039 0,3.4618 0.0187,3.65452 0.46042,4.74115 0.45193,1.11178 0.45935,1.20234 0.40315,4.91178 -0.0496,3.2694 -0.10221,3.86365 -0.39057,4.40601 -0.46433,0.87335 -1.50449,1.92855 -2.35442,2.38845 -0.70306,0.38044 -0.87901,0.38861 -9.22789,0.42818 -6.80004,0.0322 -8.64632,-0.009 -9.18346,-0.20293 z"
       id="path20" />
  </g>
</svg>
