<?xml version="1.0" encoding="UTF-8" standalone="no"?>
<!-- Created with Inkscape (http://www.inkscape.org/) -->

<svg
   width="210mm"
   height="297mm"
   viewBox="0 0 210 297"
   version="1.1"
   id="svg1"
   inkscape:version="1.4.3 (0d15f75, 2025-12-25)"
   sodipodi:docname="LOGO_SAMOLOT_ONLY.svg"
   xmlns:inkscape="http://www.inkscape.org/namespaces/inkscape"
   xmlns:sodipodi="http://sodipodi.sourceforge.net/DTD/sodipodi-0.dtd"
   xmlns:xlink="http://www.w3.org/1999/xlink"
   xmlns="http://www.w3.org/2000/svg"
   xmlns:svg="http://www.w3.org/2000/svg">
  <sodipodi:namedview
     id="namedview1"
     pagecolor="#505050"
     bordercolor="#ffffff"
     borderopacity="1"
     inkscape:showpageshadow="0"
     inkscape:pageopacity="0"
     inkscape:pagecheckerboard="1"
     inkscape:deskcolor="#505050"
     inkscape:document-units="mm"
     inkscape:zoom="0.37008281"
     inkscape:cx="21.616784"
     inkscape:cy="882.23499"
     inkscape:window-width="933"
     inkscape:window-height="1211"
     inkscape:window-x="2276"
     inkscape:window-y="111"
     inkscape:window-maximized="0"
     inkscape:current-layer="layer1" />
  <defs
     id="defs1">
    <linearGradient
       inkscape:collect="always"
       xlink:href="#linearGradient34"
       id="linearGradient35"
       x1="395.65616"
       y1="393.04172"
       x2="546.42383"
       y2="374.74042"
       gradientUnits="userSpaceOnUse"
       gradientTransform="matrix(0.35277777,0,0,0.35277777,-93.847064,-31.622086)" />
    <linearGradient
       id="linearGradient34"
       inkscape:collect="always">
      <stop
         style="stop-color:#10003a;stop-opacity:1;"
         offset="0"
         id="stop34" />
      <stop
         style="stop-color:#229aa5;stop-opacity:0.65408808;"
         offset="1"
         id="stop35" />
    </linearGradient>
  </defs>
  <g
     inkscape:label="Layer 1"
     inkscape:groupmode="layer"
     id="layer1">
    <path
       d="m 124.52238,7.8537462 c -2.36362,0.7408333 -11.00667,5.7855558 -28.857226,16.8627778 -4.586111,2.822222 -6.773333,3.986389 -7.549444,3.986389 -0.599722,0 -4.7625,-0.881945 -9.242778,-1.975556 -12.170833,-2.892778 -18.944166,-4.515555 -27.728333,-6.491111 -4.374444,-1.023055 -9.877777,-2.293055 -12.241388,-2.8575 -2.363611,-0.564444 -4.7625,-1.023055 -5.291667,-1.023055 -1.093611,0 -5.891388,2.786944 -7.655277,4.409722 -0.846667,0.811389 -0.9525,1.023055 -0.529167,1.411111 0.493889,0.493889 6.808611,4.056944 12.982222,7.3025 3.527778,1.869722 6.314722,3.351389 9.560277,5.115277 4.021667,2.2225 9.807223,5.009445 12.276667,5.961945 1.375833,0.529166 2.54,1.093611 2.54,1.234722 0,0.458611 -12.241389,9.031111 -14.710833,10.336389 -0.635,0.3175 -1.658056,0.564444 -2.293056,0.564444 -0.635,0 -5.3975,-1.199444 -10.548055,-2.645833 -11.43,-3.210278 -11.394722,-3.210278 -13.934722,0.776111 -0.670278,1.023055 -1.199444,2.257778 -1.199444,2.751666 0,1.305278 2.963333,3.457223 9.242777,6.702778 9.771944,5.009444 11.147778,5.785556 17.039166,9.419167 2.046111,1.234722 3.951111,1.622777 5.150556,0.987777 0.458611,-0.246944 4.268611,-2.469444 8.431389,-4.938888 4.162777,-2.469445 10.442222,-6.103056 13.934722,-8.113889 3.4925,-1.975556 8.572499,-4.974167 11.288888,-6.632222 6.596945,-4.021667 29.421666,-17.427222 34.043056,-20.0025 7.72583,-4.303889 9.63083,-5.644444 13.19389,-9.383889 5.11527,-5.326944 6.56166,-8.854722 4.69194,-11.6416662 -1.16417,-1.7638889 -3.38667,-2.3988889 -8.00805,-2.3988889 -2.04611,0.035278 -4.09223,0.1411112 -4.58611,0.2822223 z"
       id="path1"
       style="fill:#10003a;fill-opacity:1;stroke:none;stroke-width:0.0352778" />
    <path
       id="path23"
       style="fill:url(#linearGradient35);fill-opacity:1;stroke-width:0.264583"
       d="m 31.147356,141.6023 3.112851,2.57483 3.112848,2.17131 -0.49959,-3.17049 z m 2.747762,1.80623 c 0.177069,0.20697 0.405295,0.35114 0.614884,0.51881 0.04172,0.0334 0.07099,0.0858 0.115288,0.11529 0.02385,0.0159 0.05661,0.0182 0.07686,0.0384 0.01013,0.0101 0.0078,0.0299 0.01923,0.0384 0.01623,0.0121 0.03953,0.0102 0.05765,0.0192 0.01309,0.007 0.160994,0.13939 0.172935,0.15372 0.02752,0.033 0.02727,0.0849 0.05765,0.11529 0.02025,0.0203 0.05449,0.0205 0.07686,0.0384 0.03607,0.0289 0.0442,0.0826 0.07686,0.11529 0.01012,0.0101 0.02829,0.009 0.03843,0.0192 0.01312,0.0132 0.05003,0.10767 0.05764,0.11529 0.0051,0.005 0.04973,0 0.05764,0 M 110.27015,62.040412 c 1.55223,1.199444 2.96334,4.056944 2.96334,6.103055 0,2.681111 -1.97556,5.468056 -4.65667,6.561667 -2.82222,1.199444 -5.36222,0.423333 -7.9375,-2.363611 -2.716388,-2.928056 -2.716388,-5.503333 -0.0353,-8.290278 3.175,-3.280833 6.94972,-4.056944 9.66611,-2.010833 z m 32.31445,26.669999 c 0.45861,0.176389 1.19944,0.917223 1.65805,1.5875 1.51695,2.2225 0.45861,6.067778 -1.97555,7.055556 -1.37584,0.599722 -3.28084,0.635 -4.445,0.105833 -0.9525,-0.423333 -2.36361,-2.928055 -2.36361,-4.162778 0,-1.27 0.91722,-3.033888 2.08138,-4.021666 1.23473,-1.023056 3.4925,-1.305278 5.04473,-0.564445 z m -63.006112,7.902222 c 2.681111,2.046111 2.328333,6.491107 -0.670278,8.290277 -1.411111,0.88194 -2.469444,0.88194 -4.374444,0 -2.716389,-1.19944 -3.316111,-3.03389 -2.187223,-6.596943 0.811389,-2.504722 4.903611,-3.457222 7.231945,-1.693334 z M 106.64199,51.705127 c -0.70666,-0.0011 -1.355,0.04303 -1.87534,0.140043 -6.138336,1.164166 -8.148858,2.081561 -11.323858,5.11545 -2.434167,2.328333 -3.633611,4.691736 -4.233334,8.254792 -0.599722,3.563055 0.2116,8.643126 1.869656,11.359515 1.446388,2.469444 4.26854,4.797636 7.690484,6.385136 1.446392,0.705556 2.645832,1.270208 2.645832,1.270208 0,0.03528 -0.0704,11.500658 -0.17621,25.505939 l -0.17674,25.47028 -1.410764,1.44642 c -2.54,2.64583 -3.422153,2.89288 -9.207708,2.75177 -4.903611,-0.10584 -5.044927,-0.14122 -6.561871,-1.16427 -1.023056,-0.70556 -1.833965,-1.69351 -2.504243,-2.99878 l -0.952912,-1.9756 0.211874,-10.05416 0.247012,-10.08931 1.516704,-0.77618 c 1.905,-1.02305 5.433124,-4.6567 6.526735,-6.73809 0.670278,-1.34055 0.811318,-2.11632 0.811318,-5.11493 0.03528,-3.13972 -0.07083,-3.775133 -0.988053,-5.715411 -1.164166,-2.575278 -3.633403,-5.07952 -6.138125,-6.208409 -1.375833,-0.635 -2.293299,-0.776178 -5.362465,-0.776178 -3.280834,0 -3.951009,0.105731 -5.714898,0.952398 -4.162778,1.940277 -7.231771,6.491075 -7.584549,11.253575 -0.176389,2.398885 -0.106176,2.892675 0.881602,5.185725 1.340556,3.24556 2.716766,4.93882 5.327322,6.63216 l 2.116666,1.37614 0.03514,8.71368 c 0,4.83305 -0.07052,8.74882 -0.141076,8.74882 -0.458611,0 -5.574097,-1.97566 -7.091041,-2.75177 -4.339167,-2.15194 -9.348678,-6.38531 -12.417845,-10.44226 -3.351389,-4.40972 -6.420555,-12.13541 -7.408333,-18.555968 -0.705555,-4.7625 -0.281809,-9.73684 1.48208,-16.757117 1.411111,-5.679722 1.552222,-5.150418 -2.116667,-6.914307 -1.658056,-0.811389 -2.187635,-0.9176 -2.540413,-0.564822 -0.564444,0.529167 -2.292643,5.503746 -3.28042,9.419579 -1.5875,6.138334 -1.48184,16.192495 0.176216,22.754165 2.2225,8.78417 10.301248,20.10799 17.956526,25.22327 3.739444,2.50472 9.913158,5.39784 13.864269,6.52673 2.398888,0.67028 3.562642,1.19948 4.338753,1.97559 0.564445,0.59972 1.058334,1.16386 1.058334,1.26969 0,0.45861 -6.06757,-0.28208 -9.313125,-1.09347 -1.869722,-0.49389 -4.903784,-1.5873 -6.702951,-2.43397 -4.515555,-2.15194 -10.865245,-6.38572 -13.969689,-9.2785 -2.786945,-2.64583 -6.914547,-7.93736 -9.101769,-11.67681 -4.727222,-8.11388 -7.196772,-19.438081 -5.926772,-27.375581 0.917222,-5.503333 2.293299,-10.865693 3.774965,-14.252359 1.305278,-3.139723 1.693196,-4.691705 1.093474,-4.691705 -0.141111,0 -1.516842,-0.705555 -3.069064,-1.5875 -1.516945,-0.881944 -2.892813,-1.481596 -3.033924,-1.340485 -0.529167,0.529167 -3.915869,10.58309 -5.150591,15.275034 l -1.235065,4.7625 0.176732,6.526735 c 0.141111,5.785551 0.281911,7.020071 1.269689,10.900621 1.516944,5.96195 2.610937,9.06632 4.798159,13.51132 3.033889,6.13834 5.291321,9.3132 9.348265,13.26431 4.938889,4.83306 8.078784,7.09114 15.169617,10.90114 4.515555,2.43417 12.171006,4.79768 16.757117,5.18573 11.535833,0.98778 11.18302,0.98799 15.486909,0.21188 2.716388,-0.49389 5.150315,-0.70566 7.337537,-0.63511 l 3.280936,0.10594 -3.527951,1.16375 c -6.914444,2.32834 -14.428265,3.24597 -20.460765,2.54042 -10.900833,-1.23473 -16.122254,-2.6815 -23.601143,-6.38566 -7.443611,-3.73945 -15.945417,-10.65351 -20.67264,-16.89768 -7.690555,-10.16 -12.453125,-25.01194 -11.888681,-37.041661 0.388056,-7.655278 2.187395,-14.428922 6.173784,-23.071977 1.516944,-3.280833 1.58726,-3.527605 0.987538,-3.880383 -0.352778,-0.211666 -1.446181,-0.917359 -2.433959,-1.552359 -0.987777,-0.599723 -2.010939,-1.128614 -2.222606,-1.128614 -0.811388,0 -2.257707,2.186979 -4.515484,6.808367 -2.434167,5.044723 -3.704442,8.607711 -4.69222,13.511322 -0.4938892,2.54 -0.6345872,4.797915 -0.6345872,11.606526 0.03528,8.431389 0.03485,8.501909 1.1637542,12.841079 3.527777,13.335 7.408746,21.06062 14.711245,29.42146 3.986389,4.58611 8.396178,8.21989 8.713678,7.23211 0.07056,-0.17639 0.422886,4e-5 0.775663,0.38809 0.458612,0.49389 0.529375,0.74104 0.211875,0.74104 -1.305277,0 6.737883,5.18553 11.817883,7.61969 13.123333,6.24417 29.210412,8.07854 44.344578,5.04465 6.314722,-1.27 18.6617,-5.89114 23.7417,-8.92503 4.23334,-2.50472 10.19518,-7.76122 11.00657,-9.63094 0.35278,-0.84667 0.45888,-3.42198 0.45888,-10.44225 v -9.27799 l 2.50476,-2.99879 c 1.37583,-1.62277 3.91549,-4.44489 5.6441,-6.24406 l 3.13986,-3.24528 2.68098,-0.35295 c 2.8575,-0.35277 5.22107,-1.44652 8.07857,-3.66902 1.83445,-1.41111 2.0816,-1.72872 3.38688,-4.339271 1.02305,-2.046111 1.0935,-2.363442 0.95239,-5.467886 -0.10583,-3.033889 -0.21159,-3.457081 -1.34048,-5.326803 -2.11667,-3.527778 -4.02143,-5.397398 -6.27921,-6.244065 -1.72861,-0.634999 -2.61062,-0.740935 -6.06784,-0.635102 -3.84528,0.105834 -4.12785,0.17611 -5.4684,1.12861 -0.77611,0.564445 -2.11646,1.905311 -2.96313,2.963644 -4.09222,5.08 -4.48014,7.443749 -2.15181,13.194026 0.77612,1.940278 1.41077,3.703717 1.41077,3.950667 0,0.21166 -1.23431,1.65843 -2.75125,3.21065 -2.82223,2.89278 -7.90223,8.85462 -8.46667,9.94823 -0.21167,0.35278 -0.45885,4.90334 -0.59996,10.12445 l -0.28215,9.45472 -1.09348,1.26969 c -1.19944,1.34056 -2.57524,2.04635 -5.43274,2.71663 l -1.83452,0.42323 0.17622,-18.90892 c 0.10583,-10.40695 0.28226,-22.577505 0.38809,-27.057782 l 0.21187,-8.114235 1.55184,-0.987534 c 0.84667,-0.529167 2.96361,-2.363784 4.69222,-4.057117 2.36362,-2.293056 3.3864,-3.633301 4.30362,-5.503023 1.12889,-2.328333 1.19941,-2.681284 1.19941,-6.173784 0,-3.633611 -0.0351,-3.810208 -1.37563,-6.561875 -1.65805,-3.351388 -5.43298,-7.302083 -8.14937,-8.572083 -1.29646,-0.608542 -3.94219,-1.018854 -6.06216,-1.02216 z" />
  </g>
</svg>
