<?xml version="1.0" encoding="UTF-8" standalone="no"?>
<svg
   version="1.0"
   width="1024.000000pt"
   height="1024.000000pt"
   viewBox="0 0 1024.000000 1024.000000"
   preserveAspectRatio="xMidYMid meet"
   id="svg10"
   sodipodi:docname="ChatBox_image.svg"
   inkscape:version="1.4.3 (0d15f75, 2025-12-25)"
   xmlns:inkscape="http://www.inkscape.org/namespaces/inkscape"
   xmlns:sodipodi="http://sodipodi.sourceforge.net/DTD/sodipodi-0.dtd"
   xmlns:xlink="http://www.w3.org/1999/xlink"
   xmlns="http://www.w3.org/2000/svg"
   xmlns:svg="http://www.w3.org/2000/svg">
  <defs
     id="defs10">
    <linearGradient
       id="linearGradient34"
       inkscape:collect="always">
      <stop
         style="stop-color:#10003a;stop-opacity:1;"
         offset="0"
         id="stop34" />
      <stop
         style="stop-color:#229aa5;stop-opacity:0.65408808;"
         offset="1"
         id="stop35" />
    </linearGradient>
    <inkscape:perspective
       sodipodi:type="inkscape:persp3d"
       inkscape:vp_x="0 : 512 : 1"
       inkscape:vp_y="0 : 1000 : 0"
       inkscape:vp_z="1024 : 512 : 1"
       inkscape:persp3d-origin="512 : 341.33333 : 1"
       id="perspective25" />
    <rect
       x="25.563688"
       y="635.60624"
       width="1388.5731"
       height="405.53305"
       id="rect10" />
    <linearGradient
       inkscape:collect="always"
       xlink:href="#linearGradient34"
       id="linearGradient35"
       x1="395.65616"
       y1="393.04172"
       x2="546.42383"
       y2="374.74042"
       gradientUnits="userSpaceOnUse" />
  </defs>
  <sodipodi:namedview
     id="namedview10"
     pagecolor="#505050"
     bordercolor="#ffffff"
     borderopacity="1"
     inkscape:showpageshadow="0"
     inkscape:pageopacity="0"
     inkscape:pagecheckerboard="1"
     inkscape:deskcolor="#505050"
     inkscape:document-units="pt"
     inkscape:zoom="0.8605957"
     inkscape:cx="621.08142"
     inkscape:cy="666.39887"
     inkscape:window-width="1760"
     inkscape:window-height="1211"
     inkscape:window-x="955"
     inkscape:window-y="30"
     inkscape:window-maximized="0"
     inkscape:current-layer="svg10" />
  <path
     d="m 619,111.9 c -6.7,2.1 -31.2,16.4 -81.8,47.8 -13,8 -19.2,11.3 -21.4,11.3 -1.7,0 -13.5,-2.5 -26.2,-5.6 -34.5,-8.2 -53.7,-12.8 -78.6,-18.4 -12.4,-2.9 -28,-6.5 -34.7,-8.1 -6.7,-1.6 -13.5,-2.9 -15,-2.9 -3.1,0 -16.7,7.9 -21.7,12.5 -2.4,2.3 -2.7,2.9 -1.5,4 1.4,1.4 19.3,11.5 36.8,20.7 10,5.3 17.9,9.5 27.1,14.5 11.4,6.3 27.8,14.2 34.8,16.9 3.9,1.5 7.2,3.1 7.2,3.5 0,1.3 -34.7,25.6 -41.7,29.3 -1.8,0.9 -4.7,1.6 -6.5,1.6 -1.8,0 -15.3,-3.4 -29.9,-7.5 -32.4,-9.1 -32.3,-9.1 -39.5,2.2 -1.9,2.9 -3.4,6.4 -3.4,7.8 0,3.7 8.4,9.8 26.2,19 27.7,14.2 31.6,16.4 48.3,26.7 5.8,3.5 11.2,4.6 14.6,2.8 1.3,-0.7 12.1,-7 23.9,-14 11.8,-7 29.6,-17.3 39.5,-23 9.9,-5.6 24.3,-14.1 32,-18.8 18.7,-11.4 83.4,-49.4 96.5,-56.7 21.9,-12.2 27.3,-16 37.4,-26.6 14.5,-15.1 18.6,-25.1 13.3,-33 -3.3,-5 -9.6,-6.8 -22.7,-6.8 -5.8,0.1 -11.6,0.4 -13,0.8 z"
     id="path1"
     style="fill:#10003a;fill-opacity:1;stroke:none;stroke-width:0.1" />
  <text
     xml:space="preserve"
     transform="matrix(0.75,0,0,0.75,-25.273191,47.931911)"
     id="text10"
     style="font-style:normal;font-variant:normal;font-weight:600;font-stretch:normal;font-size:200px;font-family:Orbitron;-inkscape-font-specification:'Orbitron Semi-Bold';writing-mode:lr-tb;direction:ltr;white-space:pre;shape-inside:url(#rect10);fill:#10003a;fill-opacity:1"><tspan
       x="25.564453"
       y="821.84949"
       id="tspan2"><tspan
         style="font-weight:bold;-inkscape-font-specification:'Orbitron Bold'"
         id="tspan1">SIMULAT   D</tspan></tspan></text>
  <path
     style="fill:#00cfad;fill-opacity:0.30212766;stroke-width:0.871493"
     d="m 805.17209,678.82136 c -4.0902,-1.18698 -10.15695,-7.03167 -12.72308,-12.25725 -1.6371,-3.33364 -2.45565,-6.72309 -2.86372,-11.85772 l -0.57143,-7.18979 h 12.69645 12.69653 v 3.9217 3.92171 h 34.4238 34.4238 V 643.5949 631.82979 h -37.0383 -37.0383 v -12.6366 -12.63659 h 34.85962 34.85955 v -10.89362 -10.89362 h -32.24512 -32.24505 v 4.7932 4.79319 h -12.6366 -12.6366 l 0.027,-2.83235 c 0.0585,-6.16304 1.75192,-15.6068 3.35677,-18.72093 2.07098,-4.01849 6.20123,-7.97132 11.50823,-11.01399 l 3.99825,-2.2923 h 38.52157 c 36.84105,0 38.67105,0.0763 41.94855,1.74832 4.88325,2.49122 9.28095,6.58865 11.93828,11.12297 2.0451,3.48977 2.36887,5.21277 2.9658,15.78516 0.36847,6.52729 0.69307,15.67694 0.72112,20.33256 0.0382,6.31659 0.4935,9.58695 1.79415,12.88673 1.54035,3.90791 1.7424,6.46979 1.73813,22.03737 0,10.02203 -0.4143,19.09006 -0.95468,21.03638 -1.28715,4.63603 -9.72052,13.06934 -14.3565,14.35651 -4.2045,1.16734 -83.1519,1.18472 -87.16807,0.0192 z"
     id="path21" />
  <path
     style="fill:#229aa5;fill-opacity:1;stroke-width:0.896779"
     d="m 798.97761,675.01906 c -4.85707,-1.75736 -9.44541,-5.54131 -12.43663,-10.25622 -3.37538,-5.32045 -4.36805,-9.06495 -4.37415,-16.50064 l -0.008,-6.05211 h 13.00567 13.00568 v 4.03474 4.03473 h 35.42921 35.4292 v -12.1042 -12.10421 h -38.12041 -38.12006 v -13.00082 -13.00081 h 35.87776 35.87768 v -11.2076 -11.20759 h -33.18712 -33.18682 v 4.93134 4.93136 h -13.00568 -13.00567 v -7.01015 c 0,-12.79823 4.14173,-20.66989 13.78468,-26.19852 l 4.60263,-2.63883 40.61649,-0.008 40.61648,-0.008 4.34128,2.19908 c 5.75107,2.91322 11.40512,9.44672 13.09358,15.13016 0.99653,3.35446 1.34127,9.15725 1.34127,22.57796 0,17.32893 0.0937,18.29361 2.30475,23.73302 2.26223,5.56534 2.29943,6.0186 2.01807,24.58714 -0.24794,16.36586 -0.51163,19.34054 -1.95508,22.05541 -2.32436,4.3718 -7.53117,9.65388 -11.78567,11.95602 -3.51936,1.90437 -4.40011,1.94525 -46.1925,2.14333 -34.03932,0.16133 -43.28141,-0.0429 -45.97018,-1.01575 z"
     id="path20" />
  <path
     id="path23"
     style="fill:url(#linearGradient35);fill-opacity:1;stroke-width:0.75"
     d="m 354.3149,491.02978 8.82383,7.29873 8.82382,6.15489 -1.41616,-8.98723 z m 7.78893,5.12001 c 0.50193,0.58668 1.14887,0.99535 1.74298,1.47064 0.11825,0.0946 0.20123,0.24308 0.3268,0.32681 0.0676,0.045 0.16047,0.0515 0.21788,0.10894 0.0287,0.0287 0.022,0.0846 0.0545,0.10893 0.046,0.0344 0.11206,0.0288 0.16341,0.0544 0.0371,0.0185 0.45636,0.39512 0.49021,0.43574 0.078,0.0936 0.0773,0.24069 0.16341,0.3268 0.0574,0.0575 0.15446,0.0582 0.21786,0.10894 0.10224,0.0818 0.1253,0.23423 0.21788,0.32681 0.0287,0.0287 0.0802,0.0258 0.10894,0.0545 0.0372,0.0373 0.14181,0.30522 0.1634,0.32682 0.0144,0.0144 0.14098,0 0.1634,0 M 578.6,265.5 c 4.4,3.4 8.4,11.5 8.4,17.3 0,7.6 -5.6,15.5 -13.2,18.6 -8,3.4 -15.2,1.2 -22.5,-6.7 -7.7,-8.3 -7.7,-15.6 -0.1,-23.5 9,-9.3 19.7,-11.5 27.4,-5.7 z m 91.6,75.6 c 1.3,0.5 3.4,2.6 4.7,4.5 4.3,6.3 1.3,17.2 -5.6,20 -3.9,1.7 -9.3,1.8 -12.6,0.3 -2.7,-1.2 -6.7,-8.3 -6.7,-11.8 0,-3.6 2.6,-8.6 5.9,-11.4 3.5,-2.9 9.9,-3.7 14.3,-1.6 z m -178.6,22.4 c 7.6,5.8 6.6,18.4 -1.9,23.5 -4,2.5 -7,2.5 -12.4,0 -7.7,-3.4 -9.4,-8.6 -6.2,-18.7 2.3,-7.1 13.9,-9.8 20.5,-4.8 z m 76.71543,-127.29687 c -2.00313,-0.003 -3.84092,0.12197 -5.31592,0.39697 -17.4,3.3 -23.09912,5.90049 -32.09912,14.50049 -6.9,6.6 -10.3,13.29941 -12,23.39941 -1.7,10.1 0.59981,24.5002 5.29981,32.2002 4.1,7 12.0998,13.5996 21.7998,18.0996 4.1,2 7.5,3.60059 7.5,3.60059 0,0.1 -0.19951,32.60029 -0.49951,72.30029 L 552.49951,472.8999 548.50049,477 c -7.2,7.5 -9.70059,8.20029 -26.10059,7.80029 -13.9,-0.3 -14.30058,-0.40029 -18.60058,-3.30029 -2.9,-2 -5.19864,-4.80049 -7.09864,-8.50049 l -2.70117,-5.6001 0.60059,-28.5 0.70019,-28.59961 4.29932,-2.20019 c 5.4,-2.9 15.40098,-13.2001 18.50098,-19.1001 1.9,-3.8 2.2998,-5.99902 2.2998,-14.49902 0.1,-8.9 -0.20078,-10.70117 -2.80078,-16.20117 -3.3,-7.3 -10.29941,-14.39864 -17.39941,-17.59864 -3.9,-1.8 -6.50069,-2.20019 -15.20069,-2.20019 -9.3,0 -11.19971,0.29971 -16.19971,2.69971 -11.8,5.5 -20.49951,18.3999 -21.49951,31.8999 -0.5,6.8 -0.30097,8.1997 2.49903,14.6997 3.8,9.2 7.70107,13.99981 15.10107,18.79981 l 6,3.90088 0.0996,24.70019 c 0,13.7 -0.1999,24.79981 -0.3999,24.79981 -1.3,0 -15.80059,-5.60029 -20.10059,-7.80029 -12.3,-6.1 -26.50019,-18.1001 -35.20019,-29.6001 -9.5,-12.5 -18.2,-34.39961 -21,-52.59961 -2,-13.5 -0.79883,-27.60049 4.20117,-47.50049 4,-16.1 4.4,-14.59961 -6,-19.59961 -4.7,-2.3 -6.20117,-2.60107 -7.20117,-1.60107 -1.6,1.5 -6.49883,15.60117 -9.29883,26.70117 -4.5,17.4 -4.20049,45.9 0.49951,64.5 6.3,24.9 29.20039,56.99902 50.90039,71.49902 10.6,7.1 28.10029,15.30098 39.30029,18.50098 6.8,1.9 10.09883,3.4001 12.29883,5.6001 1.6,1.7 3,3.29912 3,3.59912 0,1.3 -17.19941,-0.79961 -26.39941,-3.09961 -5.3,-1.4 -13.90049,-4.49942 -19.00049,-6.89942 -12.8,-6.1 -30.79912,-18.10127 -39.59912,-26.30127 -7.9,-7.5 -19.60029,-22.49961 -25.80029,-33.09961 -13.4,-23 -20.4003,-55.10009 -16.8003,-77.60009 2.6,-15.6 6.50069,-30.80039 10.70069,-40.40039 3.7,-8.9 4.79961,-13.29932 3.09961,-13.29932 -0.4,0 -4.29971,-2 -8.69971,-4.5 -4.3,-2.5 -8.2001,-4.1998 -8.6001,-3.7998 -1.5,1.5 -11.1001,29.99931 -14.6001,43.29931 l -3.50097,13.5 0.50097,18.50098 c 0.4,16.4 0.79912,19.89941 3.59912,30.89941 4.3,16.9 7.40108,25.69981 13.60108,38.29981 8.6,17.4 14.99902,26.39961 26.49902,37.59961 14,13.7 22.90049,20.10088 43.00049,30.90088 12.8,6.9 34.50049,13.5997 47.50049,14.6997 32.7,2.8 31.6999,2.80059 43.8999,0.60059 7.7,-1.4 14.59932,-2.00029 20.79932,-1.80029 l 9.30029,0.30029 -10.00049,3.29883 c -19.6,6.6 -40.89902,9.20117 -57.99902,7.20117 -30.9,-3.5 -45.70088,-7.60108 -66.90088,-18.10108 -21.1,-10.6 -45.19961,-30.19892 -58.59961,-47.89892 -21.8,-28.8 -35.3002,-70.9 -33.7002,-105 1.1,-21.7 6.20049,-40.90088 17.50049,-65.40088 4.3,-9.3 4.49932,-9.99951 2.79932,-10.99951 -1,-0.6 -4.09941,-2.60039 -6.89941,-4.40039 -2.8,-1.7 -5.7003,-3.19922 -6.3003,-3.19922 -2.3,0 -6.3998,6.19931 -12.7998,19.29931 -6.9,14.3 -10.50078,24.39981 -13.30078,38.29981 -1.4,7.2 -1.79883,13.60039 -1.79883,32.90039 0.1,23.9 0.0988,24.0999 3.29883,36.3999 10,37.8 21.00117,59.69942 41.70117,83.39942 11.3,13 23.80019,23.30048 24.70019,20.50048 0.2,-0.5 1.19873,10e-5 2.19873,1.1001 1.3,1.4 1.50059,2.10059 0.60059,2.10059 -3.7,0 19.09951,14.69912 33.49951,21.59912 37.2,17.7 82.80117,22.8998 125.70117,14.2998 17.9,-3.6 52.89932,-16.69931 67.29932,-25.29931 12,-7.1 28.89971,-22.0003 31.19971,-27.3003 1,-2.4 1.30078,-9.70009 1.30078,-29.60009 V 426.3999 l 7.1001,-8.50049 c 3.9,-4.6 11.09902,-12.5997 15.99902,-17.6997 L 657,391.00049 664.59961,390 c 8.1,-1 14.7999,-4.10039 22.8999,-10.40039 5.2,-4 5.90059,-4.90029 9.60059,-12.30029 2.9,-5.8 3.0997,-6.69952 2.6997,-15.49952 -0.3,-8.6 -0.5998,-9.7996 -3.7998,-15.0996 -6,-10 -11.39932,-15.29971 -17.79932,-17.69971 -4.9,-1.8 -7.40019,-2.10029 -17.20019,-1.80029 -10.9,0.3 -11.70098,0.49921 -15.50098,3.19921 -2.2,1.6 -5.99941,5.40088 -8.39941,8.40088 -11.6,14.4 -12.69961,21.10039 -6.09961,37.40039 2.2,5.5 3.99902,10.49873 3.99902,11.19873 0,0.6 -3.49883,4.70108 -7.79883,9.10108 -8,8.2 -22.4,25.09971 -24,28.19971 -0.6,1 -1.30068,13.89921 -1.70068,28.69921 l -0.7998,26.80079 -3.09961,3.59912 c -3.4,3.8 -7.29991,5.80068 -15.39991,7.70068 l -5.20019,1.19971 0.49951,-53.6001 c 0.3,-29.5 0.8001,-63.99922 1.1001,-76.69922 l 0.60058,-23.00098 4.39893,-2.79931 c 2.4,-1.5 8.40078,-6.70049 13.30078,-11.50049 6.7,-6.5 9.59922,-10.29912 12.19922,-15.59912 3.2,-6.6 3.3999,-7.60049 3.3999,-17.50049 0,-10.3 -0.0994,-10.80059 -3.89941,-18.60059 -4.7,-9.5 -15.40059,-20.69882 -23.10059,-24.29882 -3.675,-1.725 -11.17471,-2.88809 -17.18408,-2.89746 z" />
</svg>
